<svg xmlns="http://www.w3.org/2000/svg" viewBox="0 0 1536 864" role="img" aria-labelledby="t d"><title id="t">HongXingOS 7 Dev Preview 7</title><desc id="d">HongXingOS 7 当前开发预览桌面与系统设置界面示意</desc><defs><linearGradient id="bg" x1="0" y1="0" x2="1" y2="1"><stop stop-color="#ffffff"/><stop offset="1" stop-color="#f7f7f4"/></linearGradient><linearGradient id="pane" x1="0" y1="0" x2="0" y2="1"><stop stop-color="#ffffff"/><stop offset="1" stop-color="#f6f6f4"/></linearGradient><filter id="sh" x="-30%" y="-30%" width="170%" height="180%"><feDropShadow dx="0" dy="18" stdDeviation="18" flood-color="#000" flood-opacity=".12"/></filter><filter id="soft" x="-40%" y="-40%" width="180%" height="180%"><feGaussianBlur stdDeviation="12"/></filter></defs><rect width="1536" height="864" fill="url(#bg)"/><g opacity=".5" stroke="#d9d9d5" fill="none"><path d="M0 808L188 651H486"/><path d="M49 864L232 704H547"/><path d="M1295 0L1157 135H982"/><path d="M1516 0L1317 197H1150"/></g><g opacity=".85" stroke="#fe2601" fill="none"><path d="M72 815l82-69"/><path d="M1148 781l59-55"/><path d="M1353 137l84-83"/></g><g font-family="Arial,'Noto Sans CJK SC','Microsoft YaHei',sans-serif" fill="#222"><g transform="translate(22 18)"><g transform="translate(4 0)"><rect x="0" y="0" width="42" height="29" rx="3" fill="#5b86a6" stroke="#35566e"/><rect x="17" y="29" width="8" height="9" fill="#555"/><rect x="8" y="37" width="26" height="3" rx="1.5" fill="#777"/><text x="21" y="60" text-anchor="middle" font-size="12">计算机</text></g><g transform="translate(0 84)"><path d="M3 13h42v31H3z" fill="#ee4659"/><path d="M3 13h17l4-7h20v8" fill="#f25a6a"/><text x="24" y="61" text-anchor="middle" font-size="12">主文件夹</text></g><g transform="translate(0 171)"><path d="M7 11h34l-4 38H11z" fill="#a8a8a3"/><path d="M4 9h40" stroke="#777" stroke-width="3"/><path d="M15 18v24M24 18v24M33 18v24" stroke="#777"/><text x="24" y="64" text-anchor="middle" font-size="12">回收站</text></g><g transform="translate(0 263)"><circle cx="24" cy="24" r="21" fill="#f08722"/><path d="M11 36c-3-20 9-30 28-28-4 3-4 8-1 12-7-3-13 2-12 9-6-3-12 1-15 7z" fill="#5639cc"/><text x="24" y="64" text-anchor="middle" font-size="12">Firefox</text></g><g transform="translate(0 356)"><path d="M2 24L18 9l19 7 9-7v42l-9-7-19 7L2 36l15-12z" fill="#2088d3"/><text x="24" y="64" text-anchor="middle" font-size="10">Visual Studio Code</text></g><g transform="translate(0 454)"><path d="M10 4h29l8 8v38H10z" fill="#fff" stroke="#111" stroke-width="3"/><path d="M39 4v11h9" fill="none" stroke="#111" stroke-width="3"/><text x="29" y="68" text-anchor="middle" font-size="12">LibreOffice</text></g><g transform="translate(0 552)"><circle cx="25" cy="25" r="20" fill="#90949b"/><circle cx="25" cy="25" r="9" fill="#fff"/><path d="M25 0v7M25 43v7M0 25h7M43 25h7M8 8l5 5M37 37l5 5M42 8l-5 5M13 37l-5 5" stroke="#5b5f66" stroke-width="6"/><text x="25" y="68" text-anchor="middle" font-size="12">系统设置</text></g></g><g transform="translate(198 344)"><image href="hongxing-mark-exact.svg" x="0" y="0" width="132" height="132"/><text x="148" y="83" font-size="66" font-weight="900" font-style="italic" letter-spacing="-4">HongXingOS</text></g><g filter="url(#sh)" transform="translate(706 53)"><rect width="763" height="720" rx="14" fill="#fff" stroke="#d6d6d2"/><rect x="0" y="0" width="763" height="38" rx="14" fill="#fafaf9"/><rect x="0" y="26" width="763" height="12" fill="#fafaf9"/><rect x="18" y="9" width="18" height="18" rx="4" fill="#32363a"/><text x="45" y="23" font-size="13">系统设置 — 关于此系统</text><circle cx="638" cy="19" r="3" fill="#777"/><rect x="676" y="15" width="8" height="8" fill="none" stroke="#555"/><circle cx="722" cy="19" r="10" fill="#fe2601"/><path d="M717 14l10 10M727 14l-10 10" stroke="#fff" stroke-width="2"/><rect x="0" y="38" width="196" height="682" fill="#f7f7f5"/><rect x="16" y="54" width="164" height="30" rx="6" fill="#fff" stroke="#dcdcd8"/><text x="36" y="74" font-size="12" fill="#888">搜索...</text><text x="16" y="111" font-size="12" fill="#777">系统</text><g font-size="12"><rect x="10" y="120" width="176" height="34" rx="6" fill="#ffd1d0"/><circle cx="29" cy="137" r="7" fill="#fe2601"/><text x="48" y="141">关于此系统</text><text x="48" y="175">软件更新</text><text x="48" y="207">用户</text><text x="48" y="239">区域与语言</text><text x="48" y="271">时间和日期</text><text x="16" y="316" fill="#777">硬件</text><text x="48" y="344">显示与屏幕</text><text x="48" y="376">声音</text><text x="48" y="408">电源管理</text><text x="48" y="440">蓝牙</text><text x="48" y="472">打印机</text><text x="48" y="504">可移动存储设备</text><text x="48" y="536">色彩管理</text><text x="16" y="584" fill="#777">网络</text><text x="48" y="612">网络设置</text><text x="48" y="644">代理</text></g><g transform="translate(220 62)"><text x="0" y="0" font-size="28" font-weight="700">关于此系统</text><line x1="0" y1="22" x2="510" y2="22" stroke="#e7e7e4"/><g transform="translate(75 48)"><image href="hongxing-mark-exact.svg" x="0" y="0" width="84" height="84"/><text x="100" y="56" font-size="42" font-weight="900" font-style="italic" letter-spacing="-2">HongXingOS</text></g><rect x="5" y="150" width="505" height="269" rx="10" fill="url(#pane)" stroke="#e4e4e0"/><g font-size="13" fill="#333"><text x="22" y="181">系统名称</text><text x="225" y="181">HongXingOS 7</text><text x="22" y="207">版本</text><text x="225" y="207">Dev Preview 7</text><text x="22" y="233">基于</text><text x="225" y="233">Arch Linux</text><text x="22" y="259">内核版本</text><text x="225" y="259">6.12-linuxxing</text><text x="22" y="285">桌面环境</text><text x="225" y="285">Plasma 6.0.2</text><text x="22" y="311">窗口管理器</text><text x="225" y="311">KWin</text><text x="22" y="337">处理器架构</text><text x="225" y="337">x86_64</text><text x="22" y="363">图形平台</text><text x="225" y="363">Wayland</text><line x1="20" y1="381" x2="485" y2="381" stroke="#e6e6e2"/><text x="22" y="406">官方网站</text><text x="225" y="406" fill="#2a77b7">https://www.hongxingos.org</text></g><rect x="5" y="438" width="505" height="86" rx="10" fill="#fafaf8" stroke="#e4e4e0"/><text x="22" y="465" font-size="13" font-weight="700">操作系统</text><image href="hongxing-mark-exact.svg" x="22" y="480" width="38" height="38"/><text x="72" y="500" font-size="13">HongXingOS 7（Dev Preview 7）</text><text x="72" y="518" font-size="11" fill="#777">面向开发者的预览版本</text><rect x="5" y="542" width="505" height="114" rx="10" fill="#fafaf8" stroke="#e4e4e0"/><text x="22" y="568" font-size="13" font-weight="700">社区与支持</text><text x="22" y="596" font-size="12">文档</text><text x="225" y="596" font-size="12" fill="#2a77b7">https://docs.hongxingos.org</text><text x="22" y="620" font-size="12">社区论坛</text><text x="225" y="620" font-size="12" fill="#2a77b7">https://bbs.hongxingos.org</text><text x="22" y="644" font-size="12">问题反馈</text><text x="225" y="644" font-size="12" fill="#2a77b7">https://github.com/hongxingos</text></g></g><g transform="translate(0 822)"><rect width="1536" height="42" fill="#f7f7f5" stroke="#dededb"/><image href="hongxing-mark-exact.svg" x="14" y="8" width="26" height="26"/><rect x="68" y="10" width="24" height="22" rx="4" fill="#ed4f5e"/><circle cx="126" cy="21" r="12" fill="#f08722"/><path d="M159 21l11-10 13 5 7-5v22l-7-5-13 5z" fill="#2088d3"/><rect x="218" y="9" width="25" height="24" rx="5" fill="#303438"/><circle cx="286" cy="21" r="12" fill="#90949b"/><text x="1218" y="25" font-size="12">▣  ♫  ◇  ≋  ▣  ◯</text><text x="1390" y="20" font-size="12">10:24</text><text x="1384" y="34" font-size="9">2024/03/28</text></g></g></svg>