<svg xmlns="http://www.w3.org/2000/svg" viewBox="0 0 260 220" fill="none"><defs><linearGradient id="glass" x1="0" y1="0" x2="1" y2="1"><stop stop-color="#fff"/><stop offset="1" stop-color="#ececea"/></linearGradient><linearGradient id="dark" x1="0" y1="0" x2="1" y2="1"><stop stop-color="#171719"/><stop offset="1" stop-color="#343438"/></linearGradient><filter id="sh" x="-30%" y="-30%" width="180%" height="190%"><feDropShadow dx="0" dy="12" stdDeviation="10" flood-color="#000" flood-opacity=".12"/></filter></defs><g filter="url(#sh)"><rect x="46" y="50" width="152" height="103" rx="9" fill="url(#glass)" stroke="#cfcfca" transform="rotate(-5 46 50)"/><rect x="67" y="68" width="152" height="103" rx="9" fill="#fff" stroke="#bebeb9"/><rect x="67" y="68" width="152" height="18" rx="9" fill="#f3f3f1"/><circle cx="80" cy="77" r="2.6" fill="#FE2601"/><circle cx="89" cy="77" r="2.6" fill="#c8c8c3"/><circle cx="98" cy="77" r="2.6" fill="#c8c8c3"/><rect x="82" y="96" width="70" height="47" rx="5" fill="url(#dark)"/><rect x="90" y="104" width="54" height="31" rx="3" fill="#f4f4f1"/><path d="M117 104v31" stroke="#FE2601" stroke-width="2.2"/><rect x="163" y="97" width="42" height="9" rx="4.5" fill="#e1e1dd"/><rect x="163" y="113" width="31" height="7" rx="3.5" fill="#ecece8"/><rect x="163" y="127" width="37" height="7" rx="3.5" fill="#ecece8"/><path d="M93 166h99" stroke="#d2d2cd" stroke-width="2" stroke-linecap="round"/><path d="M114 154l-6 12h46l-6-12" fill="#e9e9e5" stroke="#c6c6c1"/><circle cx="191" cy="151" r="8" fill="#fff" stroke="#c9c9c4"/><path d="M187 151h8M191 147v8" stroke="#FE2601" stroke-width="1.7" stroke-linecap="round"/></g></svg>