<svg xmlns="http://www.w3.org/2000/svg" viewBox="0 0 240 240" fill="none"><defs><linearGradient id="n" x1="0" y1="0" x2="1" y2="1"><stop stop-color="#101012"/><stop offset="1" stop-color="#343438"/></linearGradient><filter id="s" x="-20%" y="-20%" width="140%" height="160%"><feDropShadow dx="0" dy="12" stdDeviation="10" flood-color="#000" flood-opacity=".16"/></filter></defs><g filter="url(#s)"><path d="M62 154C82 113 105 93 138 83M105 170c12-25 27-43 54-56M65 111c18 3 33 8 48 18M136 83c18 3 31 12 42 29" stroke="#bcbcb7" stroke-width="3" stroke-linecap="round"/><path d="M62 154C82 113 105 93 138 83" stroke="#FE2601" stroke-width="4" stroke-linecap="round"/><rect x="36" y="137" width="54" height="42" rx="4" fill="url(#n)"/><rect x="94" y="147" width="54" height="42" rx="4" fill="#232327"/><rect x="130" y="60" width="54" height="42" rx="4" fill="#0f0f11"/><rect x="158" y="103" width="46" height="38" rx="4" fill="#f3f3f0" stroke="#cfcfca"/><circle cx="63" cy="158" r="6" fill="#FE2601"/><circle cx="121" cy="168" r="5" fill="#f3f3f0" stroke="#999"/><circle cx="157" cy="81" r="6" fill="#FE2601"/><circle cx="181" cy="122" r="5" fill="#111"/></g></svg>