<svg xmlns="http://www.w3.org/2000/svg" viewBox="0 0 260 220" fill="none"><defs><linearGradient id="card" x1="0" y1="0" x2="1" y2="1"><stop stop-color="#fff"/><stop offset="1" stop-color="#e9e9e5"/></linearGradient><linearGradient id="back" x1="0" y1="0" x2="1" y2="1"><stop stop-color="#d6d6d1"/><stop offset="1" stop-color="#b8b8b3"/></linearGradient><filter id="s" x="-30%" y="-30%" width="180%" height="190%"><feDropShadow dx="0" dy="12" stdDeviation="12" flood-color="#000" flood-opacity=".12"/></filter></defs><g filter="url(#s)"><rect x="55" y="51" width="119" height="90" rx="11" fill="url(#back)" stroke="#bdbdb8" transform="rotate(-8 55 51)"/><rect x="75" y="67" width="126" height="95" rx="11" fill="url(#card)" stroke="#c6c6c1"/><rect x="91" y="84" width="44" height="44" rx="22" fill="#111214"/><path d="M104 100v-4c0-9 17-9 17 0v4" stroke="#fff" stroke-width="2.2" stroke-linecap="round"/><circle cx="112.5" cy="109" r="4.5" fill="#FE2601"/><path d="M112.5 113v8" stroke="#FE2601" stroke-width="2.1" stroke-linecap="round"/><rect x="149" y="89" width="37" height="7" rx="3.5" fill="#d4d4cf"/><rect x="149" y="104" width="30" height="6" rx="3" fill="#e4e4e0"/><rect x="149" y="117" width="34" height="6" rx="3" fill="#e4e4e0"/><path d="M91 141h94" stroke="#d1d1cc" stroke-width="1.3"/><circle cx="96" cy="151" r="4.2" fill="#FE2601"/><circle cx="111" cy="151" r="4.2" fill="#c6c6c1"/><circle cx="126" cy="151" r="4.2" fill="#c6c6c1"/><path d="M75 174c20-10 40-15 61-14 21 0 42 5 61 14" stroke="#d0d0cb" stroke-width="1.3"/><path d="M99 173c12-6 24-8 37-8s25 2 36 8" stroke="#FE2601" stroke-width="1.9"/><path d="M188 58l14-12M195 72l18-5M53 96l-15 6M56 112l-18 2" stroke="#bebeb9" stroke-width="1.4" stroke-linecap="round"/><path d="M203 129c13-12 21-29 21-47" stroke="#FE2601" stroke-width="2" stroke-linecap="round"/><circle cx="224" cy="78" r="3" fill="#FE2601"/></g></svg>