<svg xmlns="http://www.w3.org/2000/svg" viewBox="0 0 260 220" fill="none"><defs><linearGradient id="r1" x1="0" y1="0" x2="1" y2="1"><stop stop-color="#fbfbfa"/><stop offset="1" stop-color="#e1e1dd"/></linearGradient><filter id="sh" x="-30%" y="-30%" width="180%" height="190%"><feDropShadow dx="0" dy="10" stdDeviation="9" flood-color="#000" flood-opacity=".11"/></filter></defs><g filter="url(#sh)"><polygon points="48,169 128,141 212,168 132,197" fill="#fafaf8" stroke="#deded9"/><polygon points="69,165 129,145 190,165 132,187" fill="#fff" stroke="#eeeeea"/><ellipse cx="130" cy="112" rx="67" ry="38" fill="#f8f8f5" stroke="#bfbfba" stroke-width="1.4"/><ellipse cx="130" cy="112" rx="49" ry="27" fill="#fff" stroke="#d3d3ce" stroke-width="1.2"/><path d="M78 112c0-30 23-55 52-55 28 0 52 25 52 55" stroke="#9d9d98" stroke-width="7" stroke-linecap="round"/><path d="M91 106c5-19 20-33 39-33 18 0 34 14 39 33" stroke="#FE2601" stroke-width="2.7" stroke-linecap="round"/><g stroke="#c5c5c0" stroke-width="1"><path d="M130 57v17"/><path d="M95 66l10 14"/><path d="M165 66l-10 14"/><path d="M72 112h18"/><path d="M170 112h18"/><path d="M96 150l9-14"/><path d="M164 150l-9-14"/></g><rect x="105" y="92" width="50" height="42" rx="4" fill="url(#r1)" stroke="#bcbcb7" stroke-width="1.2"/><rect x="113" y="100" width="34" height="26" rx="2" fill="#111214"/><path d="M130 100v26" stroke="#FE2601" stroke-width="2.2"/><circle cx="130" cy="113" r="4" fill="#f4f4f1"/><g fill="#ededE9" stroke="#cfcfca" stroke-width=".8"><rect x="61" y="143" width="13" height="17"/><rect x="185" y="143" width="13" height="17"/><rect x="77" y="137" width="9" height="12"/><rect x="174" y="137" width="9" height="12"/></g><path d="M74 168c18-13 36-19 56-18 19 0 37 6 55 18" stroke="#c7c7c2" stroke-width="1.2"/><path d="M91 168c13-8 26-12 40-12s27 4 39 12" stroke="#FE2601" stroke-width="1.8"/></g></svg>